<svg xmlns="http://www.w3.org/2000/svg" viewBox="0 0 800 450">
<defs>
 <linearGradient id="g" x1="0" y1="0" x2="1" y2="1"><stop stop-color="#48c7ff"/><stop offset="1" stop-color="#2341b5"/></linearGradient>
 <linearGradient id="ground" x1="0" y1="0" x2="0" y2="1"><stop stop-color="#70e85e"/><stop offset="1" stop-color="#1e8c49"/></linearGradient>
 <filter id="sh"><feDropShadow dx="0" dy="8" stdDeviation="7" flood-opacity=".35"/></filter>
</defs>
<rect width="800" height="450" fill="url(#g)"/>

<rect y="250" width="800" height="200" fill="#1b4d9c"/><g fill="#78e56b"><rect x="70" y="300" width="180" height="32" rx="7"/><rect x="310" y="230" width="150" height="32" rx="7"/><rect x="530" y="300" width="190" height="32" rx="7"/></g>
<g fill="#9fe879"><rect x="85" y="286" width="150" height="14"/><rect x="325" y="216" width="120" height="14"/><rect x="545" y="286" width="160" height="14"/></g>
<g filter="url(#sh)"><rect x="370" y="135" width="55" height="55" rx="8" fill="#ef3f3f"/><rect x="378" y="128" width="40" height="12" rx="5" fill="#ffdb2f"/><rect x="375" y="190" width="18" height="45" fill="#1f4b91"/><rect x="404" y="190" width="18" height="45" fill="#1f4b91"/><rect x="345" y="150" width="25" height="14" fill="#ef3f3f"/><rect x="425" y="150" width="25" height="14" fill="#ef3f3f"/></g>
<g fill="#ffd62b"><circle cx="145" cy="235" r="18"/><circle cx="390" cy="160" r="18"/><circle cx="620" cy="235" r="18"/></g>
<rect x="24" y="22" width="752" height="406" rx="24" fill="none" stroke="#ffffff" stroke-opacity=".18" stroke-width="3"/>
<rect x="35" y="335" width="730" height="78" rx="18" fill="#04142c" fill-opacity=".72"/>
<text x="60" y="382" font-family="Arial,sans-serif" font-size="42" font-weight="900" fill="#fff">PIXEL JUMP</text>
</svg>